<svg xmlns="http://www.w3.org/2000/svg" width="48" height="42" viewBox="0 0 48 42">
  <path id="vb_android_ico_diamond_01" d="M47.883,44.907,42.165,31.841A1.407,1.407,0,0,0,40.875,31H7.125a1.406,1.406,0,0,0-1.289.841L.117,44.907A1.4,1.4,0,0,0,.341,46.38L22.935,72.513a1.41,1.41,0,0,0,2.132,0L47.66,46.38A1.4,1.4,0,0,0,47.883,44.907ZM30.509,46.867,24,67.025,17.492,46.867Zm-12.37-2.8L24,34.989l5.862,9.078ZM26.576,33.8H38.3l-5.862,9.078ZM15.563,42.878,9.7,33.8H21.425Zm4.974,22.57L4.472,46.867H14.538ZM33.463,46.867H43.528L27.464,65.448Zm1.551-2.8,5.623-8.708,3.811,8.708ZM7.364,35.359l5.623,8.708H3.553Z" transform="translate(0 -31)" fill="#fff"/>
</svg>
