<svg xmlns="http://www.w3.org/2000/svg" width="960.005" height="958" viewBox="0 0 960.005 958">
  <g id="illustration" transform="translate(-206 -105.18)">
    <g id="vb_android_illustration_02" transform="translate(206 105.18)">
      <path id="shape" d="M602.528,692.786c70.393-25.262,138.567-66.318,162.951-125.278,24.937-59.486,5.529-136.349-22.746-197.947-27.721-61.6-64.864-107.928-85.379-173.21-20.516-65.808-24.959-151.093-67.086-161.626S468.327,87.358,386.291,83.664C304.255,80.5,220.549,9.945,142.392.988,64.79-7.97-6.709,45.194.5,114.686,8.271,183.651,94.2,268.945,95.312,353.7c1.671,84.232-81.465,167.929-75.363,215.309,6.1,46.854,101.442,57.393,177.383,79.511,76.5,21.592,134.145,54.764,198.445,66.879C460.631,727.517,532.135,718.049,602.528,692.786Z" transform="matrix(0.995, 0.105, -0.105, 0.995, 75.326, 145.691)" fill="#e9ebf0"/>
      <g id="shadow" transform="translate(480.97 951)">
        <rect id="_01" data-name="01" width="265" height="7" rx="3.5" transform="translate(191)" fill="#c8ccda"/>
        <rect id="_02" data-name="02" width="140.346" height="7" rx="3.5" fill="#c8ccda"/>
      </g>
      <g id="head" transform="translate(182.605 123.564)">
        <path id="_00" data-name="00" d="M15579.321,2176.017l16.166,31-5.9,5.2,4.779,16.941s33.742,50.823-21.16,43.512l12.371,43.653-5.621,17.152-60.734-10.193s13.494-48.292,7.17-70.084c0,0,.281-6.467-10.686-18.487-10.967-12.09.7-21.651,8.225-14.832l10.334,13.848,6.4-3.023-7.8-23.83a13.651,13.651,0,0,1-9.35-10.755c-1.547-8.716,10.826-13.707,18.416-9.63s20.6-1.054,19.4-9.56c-1.125-8.506,12.654-19.823,18-.844Z" transform="translate(-15472.196 -2137.059)" fill="#c8ccda" fill-rule="evenodd"/>
        <path id="_01-2" data-name="01" d="M15011.41,1879.5s-52.369-23.76-55.182-49.347c-1.615-14.691,11.881-21.44,15.537-27.485,4.217-6.959-24.041-18.347,15.676-22.143a234.342,234.342,0,0,0,20.314-16.449c11.246-10.122,23.549-6.045,27.557-1.265,3.936,12.3,14.76-9.63,33.389,2.531,6.748,4.428,9.91,12.091-8.646,24.533h0c-.07-.141-.211-.281-.281-.422l-.07-.141c-.07-.07-.139-.211-.211-.281l-.141-.14-.211-.211-.141-.141-.211-.211-.141-.141c-.07-.07-.141-.141-.211-.141-5.975-5.131-13.707,2.6-13.285,9.068v.07a12.6,12.6,0,0,1,.07,2.32h0c-.492,4.007-4.076,6.748-7.592,8.014h0a25.131,25.131,0,0,1-2.461.7h0a14.272,14.272,0,0,1-7.1-.211h0a5.236,5.236,0,0,1-1.125-.422h0c-.352-.141-.775-.352-1.127-.492a6.711,6.711,0,0,0-1.475-.633h0c-.141-.07-.281-.07-.352-.141h0c-10.4-3.444-22.143,5.975-13.848,16.59h0l.211.211h0a13.88,13.88,0,0,0,5.975,4.218h.492l7.8,23.83-3.795,1.828-2.6,1.265-2.25-2.953-8.154-10.9a8.141,8.141,0,0,0-5.623-2.249h-.352a7.224,7.224,0,0,0-6.68,6.959h0c-.35,5.764,4.359,9.841,7.664,13.918h0l.42.492h0c5.063,6.538,6.818,10.825,8.014,18.628h0a5.462,5.462,0,0,1,.141,1.125v.211Z" transform="translate(-14956.095 -1757.811)" fill="#848aa7" fill-rule="evenodd"/>
        <path id="_02-2" data-name="02" d="M16275.5,2827l5.484,11.809-26.854,17.082c1.828,4.147,5.271,8.013,10.895,8.013,9.209,0,14.2-8.646,10.686-16.589l5.342-2.039c15.887,17.714,25.869,48.785-20.736,45.27L16249,2859.265l26.5-32.2Z" transform="translate(-16158.114 -2751.843)" fill="#a5abc1" fill-rule="evenodd"/>
        <path id="_03" data-name="03" d="M16042.811,2475a5.9,5.9,0,1,1-5.9,5.9A5.941,5.941,0,0,1,16042.811,2475Zm15.182,42.95-25.936,10.122,23.9-15.887,2.109,5.834Zm-43.088-32.827a5.9,5.9,0,1,1-5.9,5.9A5.939,5.939,0,0,1,16014.9,2485.123Z" transform="translate(-15934.985 -2424.585)" fill="#848aa7" fill-rule="evenodd"/>
      </g>
      <g id="shirt" transform="translate(111.414 289.092)">
        <path id="_01-3" data-name="01" d="M14060.814,4128.948c-162.734-4.64-115.707,149.375-96.445,233.87,0,31.421.281,61.859.352,92.859,95.6-42.6,179.391-98.061,269.508-150.22l-.068-.07-30.578-45.48-1.055-1.616,33.813-11.951h0v-.07a61.349,61.349,0,0,1,3.584-23.267h0l.281-.7a50.829,50.829,0,0,1,12.16-18.277l.07-.07.563-.563.07-.07.563-.492.141-.14.492-.492.211-.141.492-.422.211-.21.492-.422.211-.141.07-.07a6.313,6.313,0,0,1,.7-.563l.07-.07c.422-.352.912-.7,1.4-1.054h0l.213-.141.49-.352.213-.21.492-.352.211-.141.209-.141.211-.14h0l.352-.211.07-.07.211-.141h.07l.281-.14.422-.281.211-.141h0l.211-.141.211-.141h0l.141-.14h0l.211-.141.211-.141h0l.141-.07.422-.21.141-.07.35-.211.143-.071.139-.07.143-.07h.068l.213-.071.211-.14.211-.141.281-.14.141-.071.279-.14.141-.071.283-.141h.068l.281-.07h.07l.141-.07h.143l.139-.07.213-.07h1.053c-9.209-14.551-47.52-64.46-66.076-65.937l-42.811-3.3-12.582-.984L14123.727,4108l-4.711,27.416-54.2-22.846-3.867,16.871-.422-.07Z" transform="translate(-13942.999 -4108)" fill="#a5abc1" fill-rule="evenodd"/>
        <path id="_02-3" data-name="02" d="M31619.293,15657.739a7.03,7.03,0,1,1,7.025,7.033A7.045,7.045,0,0,1,31619.293,15657.739Zm-8.574-40.488a7.03,7.03,0,1,1,7.025,7.025A7.049,7.049,0,0,1,31610.719,15617.251Zm-5.691-39.79a7.029,7.029,0,1,1,7.025,7.033A7.043,7.043,0,0,1,31605.027,15577.461Z" transform="translate(-31416 -15504.359)" fill="#fefefe"/>
      </g>
      <g id="hand" transform="translate(370.82 364.455)">
        <path id="_01-4" data-name="01" d="M17790.193,5279.849c-11.527-1.476-3.937-9.63-7.945-12.16-3.021-1.9-4.99-5.413-4.848-10.615.141-3.444-7.8-6.186-2.67-15.254.631-1.054,6.605-7.521,5.834-8.576-21.861-30.789,59.607-12.372,59.607-12.372l-6.818-29.524c-1.264-5.624.633-21.791,23.338.844,39.082,39.013,2.6,97.92-.492,94.335l-66.006-6.749Zm-124.492,22.635,20.6-11.739c20.174,8.083,49.627,4.92,66.709-4.218,4.289-2.32,1.125-8.365,5.131-11.248,8.014-4.358,9.42-.843,9-12.231-.141-3.445,7.8-6.186,2.67-15.254-.631-1.055-7.1-8.717-5.834-8.576,5.906.492,4.992-14.691-1.615-15.535-16.66-2.039-59.471,3.3-59.471,3.3l2.813-29.945c.281-3.3-.141-13-17.926,1.124a54.507,54.507,0,0,0-13.637,15.817,52.844,52.844,0,0,0-2.459,5.413l-.281.7h0a61.183,61.183,0,0,0-3.586,23.268v.07h0l-.492.141h0l-.281.07L17634,5255.316l1.055,1.616,30.58,45.481Z" transform="translate(-17633.998 -5180.487)" fill="#c8ccda" fill-rule="evenodd"/>
      </g>
      <path id="pants" d="M14735.927,5018.335h0l-29.1,4.432-34.371,5.2-122.511,18.642.984,38.127v.7l-1.336-11.537-.279-2.462-.283-2.392-.842-7.316-.141-1.478-.141-1.2-1.054-9.637-.07-.774-.141-1.478-.141-.984-.352-2.814-.352-2.814-.352-2.813-.352-2.814-.352-2.813-.352-2.814-.352-2.814-.352-2.813-.352-2.814-.35-2.813-.354-2.814-.35-2.813-.984-8.512-.354-2.813-.35-2.814-.352-2.813-.352-2.813-.352-2.814-.352-2.813-.354-2.813-.35-2.885-.352-2.884-.352-2.883-.352-2.885-.352-2.884-.352-2.884-.352-2.885-.352-2.883-.352-2.885-.352-2.884-.35-2.885-.354-2.884-.35-2.884-.354-2.884-.35-2.884-.352-2.884-.352-2.884-.352-2.884-.351-2.884-.354-2.884-.35-2.885-.352-2.883-.352-2.885-.352-2.883-.352-2.884-.352-2.884-.352-2.955-.352-2.955-267.725,130-.07.563-.068.633-.072.7-.07.773-.07.844-.07.915-.07.984-.07,1.055c0,.352-.068.7-.068,1.126,0,.352-.072.773-.072,1.195s-.07.844-.07,1.267h0a7.648,7.648,0,0,1-.07,1.266,8.515,8.515,0,0,1-.07,1.336v7.6a13.564,13.564,0,0,0,.07,1.688,13.568,13.568,0,0,0,.07,1.688c0,.563.07,1.2.07,1.758s.072,1.2.072,1.83a15.969,15.969,0,0,0,.139,1.828c.07.634.07,1.267.141,1.9s.07,1.266.141,1.9h0c.072.633.141,1.266.211,1.969.07.634.141,1.337.211,1.97.07.7.141,1.336.211,2.04a20.288,20.288,0,0,0,.281,2.04h0c.07.7.211,1.407.281,2.111s.211,1.407.352,2.11h0c.141.7.209,1.407.352,2.11a20.193,20.193,0,0,1,.352,2.18h0c.141.7.281,1.479.422,2.182h0c.141.7.279,1.477.422,2.18h0c.141.7.352,1.478.492,2.182.141.773.352,1.477.492,2.25h0c.211.774.352,1.477.561,2.251s.424,1.477.635,2.251.42,1.478.633,2.25h0a20.59,20.59,0,0,0,.7,2.251c.209.774.492,1.548.7,2.251h0c.281.773.494,1.548.773,2.321h0l.844,2.322h0l.844,2.321c.281.773.633,1.547.914,2.32s.633,1.548.982,2.322h0c.354.774.634,1.547.983,2.251h0c.352.775.7,1.548,1.057,2.251h0a22.331,22.331,0,0,0,1.123,2.251h0c.352.773.773,1.478,1.2,2.251s.773,1.478,1.2,2.251.844,1.477,1.264,2.251h0c.422.774.914,1.478,1.337,2.251.422.7.914,1.478,1.4,2.181s.984,1.478,1.477,2.181.984,1.478,1.547,2.181c.492.7,1.055,1.407,1.547,2.11h0c.563.7,1.055,1.407,1.616,2.111l1.686,2.11c.564.7,1.2,1.407,1.76,2.04.631.7,1.2,1.336,1.826,2.04s1.266,1.336,1.9,2.04c.631.633,1.334,1.336,1.967,1.97.424.423.844.774,1.338,1.2h0c.42.422.912.774,1.334,1.2h0c.422.422.914.773,1.336,1.2h0c.422.421.914.773,1.336,1.2h0c.422.422.913.773,1.335,1.125h0c.42.352.912.774,1.4,1.126h0c.492.351.914.773,1.406,1.125h0c.492.352.914.774,1.406,1.125h0c.492.352.914.7,1.406,1.126h0c.492.352.912.7,1.4,1.056h0c.494.352.986.7,1.406,1.055h0l1.477,1.056h0l1.479,1.055h0l1.473,1.055h0c.494.352.986.7,1.479.986.491.351.983.7,1.476.984h0c.492.352.982.633,1.475.985h0c.492.352.984.632,1.477.984h0c.492.282.984.633,1.547.915h0c.492.281.984.633,1.547.915h0c.492.28,1.053.633,1.547.914h0c.492.282,1.053.563,1.545.845h0c.492.282,1.054.562,1.546.844h0c.492.281,1.055.563,1.547.844h0c.563.282,1.053.563,1.617.845h0a16.642,16.642,0,0,0,1.614.774h0c.563.281,1.055.492,1.617.773h0c.563.282,1.055.493,1.617.774h0a16.317,16.317,0,0,0,1.617.7h0c.563.21,1.125.492,1.617.7h0c.561.211,1.123.492,1.615.7a12.589,12.589,0,0,0,1.477.563l.211.07h0l1.688.633c1.688.633,3.374,1.2,5.13,1.759h.07c.354.141.7.211,1.055.352.211.071.492.141.7.211h0c.562.14,1.124.351,1.757.492h0c.352.07.7.211,1.055.282.211.07.422.141.7.21h0c.563.142,1.2.282,1.758.422a9.846,9.846,0,0,0,1.545.351l.281.071c1.055.281,2.18.492,3.3.7l.353.07h.07c.561.141,1.193.211,1.756.352.492.07,1.057.211,1.547.282l.281.07c.492.071.984.141,1.547.21l.352.071c.352.07.7.07,1.055.141.281.071.561.071.842.141h0c.635.07,1.2.14,1.828.21.563.071,1.127.141,1.758.211h.141c1.828.211,3.585.282,5.48.422h.283c1.2.07,2.318.07,3.514.141h4.289a14.68,14.68,0,0,0,1.756-.07h.211c.492,0,.914-.07,1.406-.07h.633c.492,0,1.055-.07,1.616-.07h.422a9.439,9.439,0,0,0,1.4-.141l.633-.07c.633-.071,1.2-.141,1.828-.212h.141c.564-.07,1.2-.141,1.758-.211h.281l1.686-.21.423-.071a11.164,11.164,0,0,0,1.617-.281l.42-.07a288.133,288.133,0,0,0,34.794-9.5c58.619-19.625,88.914-57.542,108.8-94.049l5.55,36.507,195.892-29.825-16.375-73.229Zm-197.647-197.316h0l2.74-29.966a68.435,68.435,0,0,1,54.543-46.427h0a68.341,68.341,0,0,1,72.89,40.589l.07.211,6.465,28.138.211,1.407c-3.233-.7-80.9-17.727-59.464,12.451.775,1.055-5.2,7.526-5.834,8.582-5.13,9.075,2.814,11.818,2.672,15.266-.209,5.2,1.758,8.723,4.85,10.622,4.008,2.533-3.584,10.691,7.941,12.169l-1.263-.141,62.413,18.078,17.432,114.873-132.351,33.835-21.648,5.558v-.07l-3.935-156.658c15.393.422,31.348-3.024,42.312-8.863,4.289-2.321,1.125-8.37,5.132-11.255,8.013-4.362,9.417-.844,9-12.24-.141-3.446,7.8-6.189,2.67-15.264-.633-1.056-7.1-8.723-5.833-8.582,5.905.493,4.989-14.7-1.617-15.546-16.587-2.04-59.182,3.307-59.393,3.307Zm213.11,263.3,53.278-14.28,48.639-13.084,40.136-10.762-20.948-67.813-33.176,10.974-.771.352L14692.209,4881.8l-.141-.07,35.846,131.825,14.128-3.095,2.461,19.767,81.25-49.875,12.372,9.637-93.481,40.66,6.746,53.743Zm-201.654-10.06-.068-.352Zm-1.266-11.185-.139-1.336Zm-.42-4.009-.211-1.618-.352-2.813-.351-2.814.843,7.246Zm-29.1-172.7c-.771.563-1.477,1.126-2.247,1.759l5.411-3.025c-.141-.07-.352-.141-.49-.21Zm-252.542,142.8L14230,5047.879l25.8-12.731Z" transform="translate(-14098.425 -4410.137)" fill="#535885" fill-rule="evenodd"/>
      <g id="shoes" transform="translate(479.784 647.527)">
        <path id="_00-2" data-name="00" d="M19279.811,9280.1l-2.812-18.489,122.523-18.628.633,23.268-120.344,13.778ZM19544.4,9202l9.488,36.482-117.953,32.054-8.156-31.843h0l16.8-2.531-.562-2.53Z" transform="translate(-19270.516 -9202)" fill="#c8ccda" fill-rule="evenodd"/>
        <path id="_01-5" data-name="01" d="M19192.553,9754.016c-11.6-43.653-9.42-84.354,1.547-114.581h-.283l-1.967-63.687,44.637-1.687.563,26.5-21.088.7a6.471,6.471,0,0,0,.42,12.935l20.951-.7.422,21.369-20.74.7a6.471,6.471,0,1,0,.424,12.935l20.6-.7.42,20.245-20.455.632a6.471,6.471,0,0,0,.424,12.936l20.242-.634.281,12.583-.35.141a64.318,64.318,0,0,1,19.26-3.373,68.806,68.806,0,0,1,19.121,2.107l-.281-12.652,13.074-.422a6.471,6.471,0,0,0-.422-12.935l-12.863.422-.42-20.245,12.721-.421a6.471,6.471,0,1,0-.422-12.935l-12.584.421-.418-21.369,12.371-.421a6.471,6.471,0,0,0-.422-12.935l-12.232.422-.562-26.713,42.389-1.615,1.826,60.943c12.371,26.643,17.506,65.727,8.789,120.135a22.825,22.825,0,0,0-.072,3.8c.352,12.02,2.744,13.075,4.85,14.2H19191.43c.7-2.037,1.053-5.131.91-10.053-.068-1.336.074-5.975.074-5.975Zm469.707-144.526h0c3.516-13.566,3.867-28.4,0-35.92-12.3-23.76-51.734-39.155-78.025.7a1.469,1.469,0,0,1-.633.421c-2.461,1.126-10.9.984-21.791.211l1.475,22.986a6.481,6.481,0,1,1-12.934.844l-1.617-24.885c-7.662-.772-15.744-1.616-23.549-2.6l-1.334,26.572a6.51,6.51,0,1,1-13-.635l1.334-27.484c-9.068-1.124-16.939-2.248-22-2.951l-10.475,21.44a6.507,6.507,0,0,1-11.668-5.766l12.23-24.955L19471.48,9538l-11.738,4.288-115.775,39.153,39.156,106.356h0c.068-.07.209-.211.279-.282h0a1.574,1.574,0,0,1,.352-.21h0c.141-.07.211-.141.354-.211h.068c.143-.071.211-.141.354-.211h0a.97.97,0,0,1,.42-.141h0c.141-.07.279-.07.422-.141l212.781-59.47,63.969-17.572Z" transform="translate(-19184.809 -9514.381)" fill="#848aa7" fill-rule="evenodd"/>
        <path id="_02-4" data-name="02" d="M19921,10032.124l38.029-1.124.561,26.711-38.027,1.266-.562-26.781Zm38.873,38.521.422,21.37-38.031,1.266-.42-21.369Zm.7,34.375.424,20.245-38.029,1.265-.42-20.244Zm.705,33.179.279,12.653c-.35-.07-.771-.211-1.121-.282h0l-.285-.068h0c-.42-.071-.842-.212-1.264-.281l-.492-.142-1.055-.21c-.211-.07-.49-.07-.7-.141-.279-.071-.492-.071-.771-.142a5.657,5.657,0,0,0-.984-.141l-.633-.069c-.352-.07-.7-.07-1.127-.142l-.488-.07c-.424-.07-.848-.07-1.268-.14h-.35c-.494-.071-.984-.071-1.406-.14h-.213a10.711,10.711,0,0,0-1.545-.071h-.211c-.494,0-1.055-.071-1.547-.071h-3.516a69.34,69.34,0,0,0-8.574.774h-.068a9.8,9.8,0,0,0-1.549.281h-.143c-.492.07-.984.211-1.475.28l-.283.07c-.422.071-.842.211-1.264.281l-.422.071c-.352.068-.7.211-1.125.28a2.053,2.053,0,0,1-.633.141,4.436,4.436,0,0,0-.912.282c-.213.069-.494.14-.705.209-.279.071-.631.212-.912.282-.213.069-.492.141-.7.21l-.143.071-.279-12.583,38.031-1.266Z" transform="translate(-19869.246 -9972.727)" fill="#6b7195" fill-rule="evenodd"/>
        <path id="_03-2" data-name="03" d="M31605.035,15800.352c-.273-9.839,3.945-7.165,5.91-13.147h140.867c1.691.918,3.164,1.9,3.373,8.511v.072a15.079,15.079,0,0,1-14.621,15.531l-119.99,3.655q-.255.009-.51.009A15.1,15.1,0,0,1,31605.035,15800.352Zm199.717-96.657h.063l212.783-59.468,63.969-17.576c-3.582,14.558-11.248,28.688-17.5,30.442l-252.564,70.644a6.393,6.393,0,0,1-1.746.248C31800.414,15727.985,31795.8,15706.215,31804.752,15703.694Zm-173.564-11.038a7.354,7.354,0,0,1,.426-2.528,6.414,6.414,0,0,1,5.83-4.146l71.352-2.318a6.408,6.408,0,0,1,6.674,6.256v.209a6.409,6.409,0,0,1-6.256,6.474l-71.352,2.318c-.084,0-.168,0-.25,0A6.411,6.411,0,0,1,31631.188,15692.656Zm-1.047-33.172a6.407,6.407,0,0,1,6.248-6.683l71.352-2.318a6.473,6.473,0,0,1,.418,12.938l-71.344,2.318c-.084,0-.168,0-.252,0A6.4,6.4,0,0,1,31630.141,15659.484Zm-1.062-34.371a6.413,6.413,0,0,1,6.256-6.683l71.352-2.319a6.469,6.469,0,0,1,.426,12.931l-71.352,2.319c-.088,0-.178,0-.266,0A6.4,6.4,0,0,1,31629.078,15625.113Zm340.654-9.211-1.836-28.47a6.484,6.484,0,0,1,12.939-.846l1.828,28.47a6.515,6.515,0,0,1-6.047,6.884c-.135.009-.268.013-.4.013A6.5,6.5,0,0,1,31969.732,15615.9Zm-33.324,5.2a6.56,6.56,0,0,1-6.184-6.819l1.545-31.07a6.51,6.51,0,0,1,13,.628l-1.547,31.07a6.517,6.517,0,0,1-6.562,6.2C31936.58,15621.108,31936.494,15621.106,31936.408,15621.1Zm-46.047-12.866a6.465,6.465,0,0,1-2.947-8.72l12.439-25.442a6.507,6.507,0,1,1,11.668,5.765l-12.439,25.442a6.466,6.466,0,0,1-8.721,2.955Z" transform="translate(-31604.109 -15531.545)" fill="#c8ccda"/>
      </g>
      <path id="shadow-2" data-name="shadow" d="M31605.023,15956l25.8-12.731q7.544-4.244,15.1-8.5l-39.643-52.164-.064-20.317,40.33,72.131c75.926-42.745,153.021-86.474,229.408-129.573l-27.785-41.389,33.43,38.205q7.573-4.271,15.141-8.537c-.064,0,16.1,4.286,24.047,4.569h.283l3.932,156.614,154.082-39.366-17.432-114.789-62.014-17.952.859.094,66.008,6.753a.147.147,0,0,0,.139.138h.355l36.057,132.575,14.131-3.09,2.459,19.752,81.264-49.84,12.375,9.625-93.494,40.636,6.746,53.706,101.994-27.347-101.08,34.586-.914-7.1.77,6.114-16.234-72.261-185.934,28.261.986,38.8c-6.818-59.748-13.562-119.853-20.664-182.205l-266.7,134.687c-9.633,85.9,56.725,164.281,143.682,150.361-17.852,5.449-34.225,7.971-49.184,7.971C31655.2,16104.42,31615.586,16035.757,31605.023,15956Zm112.971-142,.059-.026.006.026Zm-26.014-123.088,48.854,113.244-22.781,9.817Zm307.26,91.244v-.073l.4.117Zm-241.67-118.445-56.029-28.4,54.484,21.087,5.127-21.936,2.111,16.524-5.693,12.787Zm3.865-28.471h.064l22.146,9.277L31775,15646Zm-31.285-64.812,26.918,7.449,3.518,12.513Z" transform="translate(-31473.436 -15318.305)" fill="#6b7195"/>
      <path id="mark" d="M16099.725,73.65,16096,21.736V0h14.9V21.736l-3.443,51.914h-7.73Zm-3.164,24.339V84.272h13.846V97.99Z" transform="translate(-15833.269)" fill="#a5abc1"/>
    </g>
  </g>
</svg>
